<svg width="94" height="18" viewBox="0 0 94 18" fill="none" xmlns="http://www.w3.org/2000/svg">
<g clip-path="url(#clip0_29_2)">
<path d="M63.058 6.002C67.231 6.002 68.892 8.676 68.892 12.001C68.892 15.889 66.273 18 63.058 18C59.12 18 57.224 15.643 57.224 12C57.224 8.57 58.687 6.002 63.058 6.002ZM75.937 6.002C80.11 6.002 81.771 8.676 81.771 12.001C81.771 15.889 79.152 18 75.937 18C71.999 18 70.103 15.643 70.103 12C70.103 8.57 71.566 6.002 75.937 6.002ZM13.692 5.843C15.065 5.843 16.292 6.547 17.178 7.673V6.178H20.538V17.595H17.196L17.214 16.118C16.329 17.261 15.064 17.982 13.692 17.982C11 17.982 8.815 15.642 8.815 11.912C8.815 8.148 11 5.843 13.692 5.843ZM47.777 0.143L47.759 7.691C48.644 6.547 49.909 5.826 51.281 5.826C53.972 5.826 56.158 8.166 56.158 11.896C56.158 15.66 53.972 17.965 51.281 17.965C49.908 17.965 48.68 17.261 47.795 16.135V17.648L44.309 17.578V0.53L47.777 0.143ZM37.589 5.913C44.084 5.965 42.961 12.676 42.885 13.089L42.882 13.109V13.092H35.44C35.44 13.092 35.277 15.132 37.318 15.308C39.341 15.484 41.924 14.71 41.924 14.71L42.664 17.015C42.664 17.015 40.244 18.211 37.065 17.842C33.868 17.472 32.008 16.329 31.863 12.388C31.863 12.388 30.888 5.877 37.589 5.913ZM23.554 7.268C25.524 5.509 29.912 5.685 31.357 6.723L30.508 9.186C30.508 9.186 29.876 8.57 28.07 8.588C28.07 8.588 25.397 8.43 25.397 11.808V11.983C25.397 15.343 28.07 15.203 28.07 15.203C29.876 15.238 30.508 14.623 30.508 14.605L31.358 17.068C29.894 18.106 25.523 18.281 23.554 16.522C21.856 15.009 21.856 12.529 21.892 11.895C21.856 11.262 21.856 8.799 23.554 7.268ZM86.54 0.107999V11.28L90.098 6.142H93.838L90.188 11.878L94 17.63H90.387L86.54 11.79V17.63H83.036V0.459999L86.54 0.107999ZM6.369 0.00199929H8.833V2.782H7.26C7.26 2.782 5.833 2.589 5.833 3.926V6.107H8.832L8.471 9.133H5.816V17.578H2.348V9.08H0V6.107H2.439V3.574C2.439 3.574 2.131 2.184 3.414 1.041C4.647 -0.0590003 6.248 -0.00400071 6.369 0.00199929ZM14.757 8.623C13.529 8.623 12.517 9.713 12.517 10.857V13.039C12.517 14.182 13.511 15.273 14.757 15.273C15.986 15.273 16.997 14.183 16.997 13.039V10.857C16.997 9.714 16.004 8.623 14.757 8.623ZM63.022 8.57C61.739 8.57 60.71 9.661 60.71 10.805V12.986C60.71 14.13 61.757 15.22 63.022 15.22C64.304 15.22 65.334 14.13 65.334 12.986V10.805C65.334 9.661 64.286 8.57 63.022 8.57ZM75.901 8.57C74.618 8.57 73.589 9.661 73.589 10.805V12.986C73.589 14.13 74.636 15.22 75.901 15.22C77.183 15.22 78.213 14.13 78.213 12.986V10.805C78.213 9.661 77.165 8.57 75.901 8.57ZM50.233 8.553C49.005 8.553 47.993 9.643 47.993 10.787V12.968C47.993 14.112 49.005 15.203 50.233 15.203C51.462 15.203 52.473 14.112 52.473 12.968V10.787C52.473 9.643 51.462 8.553 50.233 8.553ZM37.535 8.271C35.187 8.271 35.367 10.805 35.367 10.805H39.703C39.703 10.805 39.883 8.271 37.535 8.271Z" fill="#197BFF"/>
</g>
<defs>
<clipPath id="clip0_29_2">
<rect width="94" height="18" fill="white"/>
</clipPath>
</defs>
</svg>
